<svg width="20" height="21" viewBox="0 0 20 21" fill="none" xmlns="http://www.w3.org/2000/svg">
<path d="M17.4773 5.67596C17.0903 6.19223 16.6225 6.64257 16.0919 7.00959C16.0919 7.14445 16.0919 7.27931 16.0919 7.42167C16.0961 9.87071 15.1179 12.219 13.3765 13.9402C11.635 15.6614 9.27598 16.6114 6.82836 16.5772C5.41331 16.582 4.01637 16.2589 2.747 15.6332C2.67855 15.6033 2.63441 15.5356 2.63466 15.4609V15.3785C2.63466 15.2709 2.72184 15.1837 2.82937 15.1837C4.22033 15.1378 5.56166 14.6555 6.6636 13.8051C5.40459 13.7797 4.27181 13.0339 3.75048 11.887C3.72416 11.8245 3.73235 11.7525 3.77212 11.6975C3.81189 11.6424 3.87748 11.612 3.94519 11.6174C4.32783 11.6558 4.7143 11.6202 5.08348 11.5125C3.69364 11.224 2.64932 10.0701 2.49986 8.65788C2.49456 8.59013 2.52491 8.52454 2.57998 8.48471C2.63504 8.44496 2.70685 8.43671 2.76946 8.46313C3.14243 8.62771 3.54506 8.71438 3.95268 8.71779C2.73485 7.91851 2.20882 6.39817 2.67211 5.01664C2.71993 4.8824 2.83482 4.78323 2.97456 4.75558C3.1143 4.72792 3.25828 4.77586 3.35358 4.88179C4.99697 6.63084 7.25501 7.67309 9.65156 7.78879C9.59023 7.54384 9.56006 7.29209 9.56173 7.03956C9.58415 5.71539 10.4035 4.5358 11.6361 4.05302C12.8687 3.57024 14.2707 3.87982 15.1858 4.83683C15.8095 4.718 16.4125 4.5085 16.9756 4.21497C17.0168 4.18922 17.0691 4.18922 17.1104 4.21497C17.1361 4.25624 17.1361 4.30856 17.1104 4.34983C16.8376 4.97439 16.3769 5.49823 15.7924 5.84828C16.3042 5.78893 16.8071 5.66818 17.2901 5.48866C17.3308 5.46098 17.3842 5.46098 17.4249 5.48866C17.459 5.50424 17.4845 5.53405 17.4946 5.57014C17.5046 5.60623 17.4983 5.64494 17.4773 5.67596Z" fill="white" fill-opacity="0.65"/>
</svg>
