<svg width="20" height="21" viewBox="0 0 20 21" fill="none" xmlns="http://www.w3.org/2000/svg">
<path d="M17.9942 6.08096C17.8993 5.72879 17.7138 5.40763 17.4562 5.14943C17.1986 4.89123 16.8778 4.70501 16.5259 4.60929C15.2209 4.25096 10 4.24512 10 4.24512C10 4.24512 4.78003 4.23929 3.4742 4.58179C3.12247 4.68191 2.80238 4.87077 2.54467 5.13024C2.28696 5.3897 2.10027 5.71106 2.00253 6.06346C1.65836 7.36846 1.65503 10.0751 1.65503 10.0751C1.65503 10.0751 1.6517 12.7951 1.99336 14.0868C2.18503 14.801 2.74753 15.3651 3.46253 15.5576C4.78086 15.916 9.98753 15.9218 9.98753 15.9218C9.98753 15.9218 15.2084 15.9276 16.5134 15.586C16.8654 15.4904 17.1865 15.3046 17.4447 15.0469C17.703 14.7893 17.8895 14.4687 17.9859 14.1168C18.3309 12.8126 18.3334 10.1068 18.3334 10.1068C18.3334 10.1068 18.35 7.38596 17.9942 6.08096ZM8.33003 12.5826L8.3342 7.58262L12.6734 10.0868L8.33003 12.5826Z" fill="white" fill-opacity="0.65"/>
</svg>
