<svg width="128" height="33" viewBox="0 0 128 33" fill="none" xmlns="http://www.w3.org/2000/svg">
<g clip-path="url(#clip0_4_5273)">
<path fill-rule="evenodd" clip-rule="evenodd" d="M0 14.2573C0 6.59895 6.20832 0.390625 13.8667 0.390625C21.525 0.390625 27.7333 6.59895 27.7333 14.2573V32.3906H20.2667H12.8H0V23.8573V19.0573V14.2573ZM2.13333 23.8573V30.2573H10.6667V23.8573C10.6667 21.5009 8.75642 19.5906 6.4 19.5906C4.04359 19.5906 2.13333 21.5009 2.13333 23.8573ZM12.8 30.2573V23.8573C12.8 20.3226 9.93462 17.4573 6.4 17.4573C4.76084 17.4573 3.26561 18.0735 2.13333 19.0869V19.0573C2.13333 14.639 5.71506 11.0573 10.1333 11.0573C14.5516 11.0573 18.1333 14.639 18.1333 19.0573V30.2573H12.8ZM25.6 30.2573H20.2667V19.0573C20.2667 13.4608 15.7298 8.92395 10.1333 8.92395C6.94016 8.92395 4.09195 10.4009 2.23459 12.7089C2.99238 6.96063 7.9114 2.52396 13.8667 2.52396C20.3468 2.52396 25.6 7.77716 25.6 14.2573V30.2573Z" fill="white"/>
<path d="M68.3571 23.2981H70.754V9.45703H68.3571V23.2981Z" fill="white"/>
<path fill-rule="evenodd" clip-rule="evenodd" d="M63.7947 21.024C63.2202 21.5534 62.2496 21.7886 61.1601 21.7886C59.5556 21.7886 58.3077 21.2789 57.8323 20.2202C57.6738 19.9066 57.5946 19.5733 57.555 19.1616H66.865C66.865 18.0049 66.7065 17.103 66.35 16.2404C65.5378 14.4564 63.6758 13.3781 61.0017 13.3781C58.3671 13.3781 56.4061 14.378 55.5939 16.2012C55.2968 16.8678 55.1383 17.5932 55.1383 18.495C55.1383 19.3576 55.277 20.1026 55.5939 20.7496C56.4061 22.5728 58.4067 23.5923 61.1403 23.5923C62.9429 23.5923 64.5474 23.1806 65.6171 22.2199C66.0785 21.8048 66.4116 21.3212 66.6164 20.7486H64.0553C63.9783 20.848 63.8911 20.9406 63.7947 21.024ZM61.0017 15.2014C62.5269 15.2014 63.7154 15.6719 64.2107 16.7502C64.3097 16.9854 64.3889 17.2011 64.4286 17.4755H57.5946C57.6342 17.2403 57.7134 17.0246 57.8125 16.809C58.3077 15.7111 59.4368 15.2014 61.0017 15.2014Z" fill="white"/>
<path d="M82.5252 22.1807C81.4754 23.1022 79.9501 23.5923 78.0881 23.5923C75.5526 23.5923 73.5915 22.6317 72.7596 20.7888C72.4625 20.1222 72.304 19.3576 72.304 18.4754C72.304 17.6128 72.4625 16.8286 72.7596 16.1816C73.5915 14.378 75.513 13.3781 78.0881 13.3781C79.9501 13.3781 81.4555 13.8486 82.5054 14.8093C83.2779 15.4758 83.6939 16.3581 83.7533 17.4167H81.198C81.1386 16.8482 80.9008 16.3973 80.5443 16.064C79.9896 15.5739 79.0983 15.3582 78.1079 15.3582C76.6619 15.3582 75.5724 15.9071 75.097 16.907C74.9187 17.3579 74.8197 17.8284 74.8197 18.4754C74.8197 19.1028 74.9187 19.5929 75.097 20.0242C75.5724 21.024 76.6619 21.573 78.1079 21.573C79.0983 21.573 80.0094 21.3573 80.5443 20.8476C80.9404 20.5143 81.1782 20.0438 81.198 19.4949H83.793C83.7137 20.5731 83.2978 21.475 82.5252 22.1807Z" fill="white"/>
<path fill-rule="evenodd" clip-rule="evenodd" d="M91.0263 23.5727C93.7995 23.5727 95.7012 22.514 96.5133 20.73C96.8104 20.0634 96.9689 19.3184 96.9689 18.4754C96.9689 17.652 96.8104 16.907 96.5133 16.2404C95.7012 14.4564 93.7995 13.3781 91.0263 13.3781C88.2729 13.3781 86.3713 14.4564 85.5394 16.2796C85.2422 16.9266 85.1036 17.6716 85.1036 18.4754C85.1036 19.2988 85.2422 20.0242 85.5394 20.6908C86.3713 22.4944 88.2729 23.5727 91.0263 23.5727ZM91.0263 21.6122C89.5209 21.6122 88.372 21.0436 87.8768 19.985C87.6985 19.5537 87.5995 19.0635 87.5995 18.4754C87.5995 17.9069 87.6985 17.3971 87.8768 16.9854C88.372 15.9267 89.5209 15.3582 91.0263 15.3582C92.5318 15.3582 93.7005 15.9071 94.1957 16.9854C94.374 17.3971 94.4532 17.9069 94.4532 18.4754C94.4532 19.0635 94.374 19.5537 94.1957 19.985C93.7005 21.0436 92.5318 21.6122 91.0263 21.6122Z" fill="white"/>
<path fill-rule="evenodd" clip-rule="evenodd" d="M122.294 21.7886C123.383 21.7886 124.354 21.5534 124.928 21.024C125.025 20.9406 125.112 20.848 125.189 20.7486H127.75C127.545 21.3212 127.212 21.8048 126.751 22.2199C125.681 23.1806 124.077 23.5923 122.274 23.5923C119.54 23.5923 117.54 22.5728 116.728 20.7496C116.411 20.1026 116.272 19.3576 116.272 18.495C116.272 17.5932 116.431 16.8678 116.728 16.2012C117.54 14.378 119.501 13.3781 122.135 13.3781C124.81 13.3781 126.672 14.4564 127.484 16.2404C127.84 17.103 127.999 18.0049 127.999 19.1616H118.689C118.728 19.5733 118.808 19.9066 118.966 20.2202C119.441 21.2789 120.689 21.7886 122.294 21.7886ZM125.344 16.7502C124.849 15.6719 123.661 15.2014 122.135 15.2014C120.571 15.2014 119.441 15.7111 118.946 16.809C118.847 17.0246 118.768 17.2403 118.728 17.4755H125.562C125.523 17.2011 125.443 16.9854 125.344 16.7502Z" fill="white"/>
<path d="M103.164 13.3984C100.577 13.3984 98.48 15.4968 98.48 18.0854V23.3051H100.928V17.5661C100.928 16.3307 101.929 15.3691 103.164 15.3691C104.398 15.3691 105.399 16.3307 105.399 17.5661V23.3051H107.847V17.5661C107.847 16.3307 108.848 15.3691 110.082 15.3691C111.317 15.3691 112.318 16.3307 112.318 17.5661V23.3051H114.766V18.0854C114.766 15.4968 112.669 13.3984 110.082 13.3984C108.712 13.3984 107.479 13.9872 106.623 14.9258C105.767 13.9872 104.534 13.3984 103.164 13.3984Z" fill="white"/>
<path d="M49.6743 20.5574L52.2015 13.6615H54.7679L50.8889 23.2806H48.4596L46.0499 16.5413L43.6403 23.2806H41.211L37.332 13.6615H39.8984L42.4256 20.577L44.8353 13.6615H47.245L49.6743 20.5574Z" fill="white"/>
</g>
<defs>
<clipPath id="clip0_4_5273">
<rect width="128" height="32" fill="white" transform="translate(0 0.390625)"/>
</clipPath>
</defs>
</svg>
